<?xml version="1.0" standalone="no"?>
<!DOCTYPE svg PUBLIC "-//W3C//DTD SVG 20010904//EN"
 "http://www.w3.org/TR/2001/REC-SVG-20010904/DTD/svg10.dtd">
<svg version="1.0" xmlns="http://www.w3.org/2000/svg"
 width="225.000000pt" height="225.000000pt" viewBox="0 0 225.000000 225.000000"
 preserveAspectRatio="xMidYMid meet">

<g transform="translate(0.000000,225.000000) scale(0.100000,-0.100000)"
fill="#000000" stroke="none">
<path d="M1315 1473 c-43 -48 -51 -65 -55 -107 l-5 -51 -130 3 c-71 2 -236 8
-365 14 -346 17 -318 19 -372 -25 l-46 -37 2 -132 1 -131 30 -18 c27 -16 64
-18 421 -17 261 0 398 -3 411 -10 15 -9 23 -29 33 -89 16 -99 31 -128 74 -143
30 -9 41 -8 76 10 22 11 58 36 78 54 40 35 144 104 233 153 30 17 85 52 121
77 59 41 66 50 73 88 16 97 16 99 -55 145 -36 24 -108 69 -160 100 -52 30
-138 82 -190 114 -52 33 -101 59 -110 59 -8 0 -37 -26 -65 -57z m183 -32 c68
-35 188 -105 295 -173 76 -49 91 -71 69 -104 -4 -6 -56 -41 -117 -77 -60 -36
-157 -95 -214 -131 -57 -36 -110 -66 -117 -66 -10 0 -13 24 -12 100 1 62 -3
104 -10 113 -10 11 -70 13 -345 9 -226 -3 -366 -1 -437 8 -58 6 -107 14 -110
17 -3 2 -5 41 -5 86 l0 82 105 -1 c58 -1 247 -7 420 -14 173 -7 328 -13 345
-14 29 -1 30 0 32 49 2 58 11 124 19 137 8 13 21 10 82 -21z m-128 -6 c0 -9
-6 -12 -15 -9 -8 4 -12 10 -9 15 8 14 24 10 24 -6z m0 -55 c0 -5 -5 -10 -11
-10 -5 0 -7 5 -4 10 3 6 8 10 11 10 2 0 4 -4 4 -10z m0 -58 c0 -13 -12 -22
-22 -16 -10 6 -1 24 13 24 5 0 9 -4 9 -8z m-937 -233 c-10 -12 -28 -33 -40
-48 l-22 -26 -1 58 c0 49 3 57 18 57 11 0 27 15 38 35 16 30 17 37 5 45 -13 7
-13 11 0 26 12 15 14 10 17 -54 2 -56 -1 -75 -15 -93z m-33 97 c0 -3 -4 -8
-10 -11 -5 -3 -10 -1 -10 4 0 6 5 11 10 11 6 0 10 -2 10 -4z m1450 -90 c0 -16
-27 -29 -42 -20 -5 3 -1 12 9 20 23 17 33 17 33 0z m-1350 -11 c0 -19 -37 -74
-52 -78 -11 -3 -18 -2 -16 1 32 64 44 82 55 82 7 0 13 -2 13 -5z m90 -24 c-20
-34 -38 -51 -54 -51 -21 0 -20 8 3 47 15 23 25 30 40 26 16 -4 18 -9 11 -22z
m100 10 c0 -5 -7 -14 -15 -21 -8 -7 -15 -19 -15 -26 0 -8 -9 -14 -20 -14 -24
0 -24 3 -5 40 14 28 55 43 55 21z m100 2 c0 -5 -7 -17 -15 -27 -8 -10 -12 -23
-9 -27 3 -5 -9 -9 -26 -9 -27 0 -31 3 -25 18 4 9 10 25 12 35 4 11 15 17 34
17 16 0 29 -3 29 -7z m140 -5 c-1 -31 -38 -58 -79 -58 l-40 0 22 35 c19 29 28
34 60 35 23 0 37 -5 37 -12z m100 7 c0 -16 -46 -65 -61 -65 -15 0 -15 3 -1 35
12 25 23 35 39 35 13 0 23 -2 23 -5z m105 -1 c14 -6 12 -11 -11 -35 -35 -36
-79 -40 -70 -6 3 12 6 28 6 35 0 13 47 17 75 6z m95 -4 c0 -5 -8 -13 -17 -19
-15 -8 -16 -12 -5 -22 20 -21 14 -29 -19 -29 -17 0 -29 3 -27 8 26 55 68 93
68 62z m80 1 c0 -5 -16 -21 -36 -36 -20 -16 -35 -24 -33 -19 23 49 35 64 51
64 10 0 18 -4 18 -9z m447 -31 c-12 -17 -16 -18 -20 -6 -4 9 1 20 11 25 23 13
27 6 9 -19z m-378 -55 c1 -47 -1 -53 -18 -48 -13 3 -28 -6 -47 -31 -32 -40
-44 -45 -44 -18 0 10 20 38 45 62 25 24 45 48 45 52 0 19 -38 6 -65 -22 -15
-16 -32 -27 -37 -24 -12 8 -2 20 54 65 59 46 65 42 67 -36z m311 26 c0 -4 -12
-21 -27 -37 -25 -26 -28 -27 -31 -10 -3 12 5 26 19 37 26 20 39 24 39 10z
m-110 -80 c0 -13 -29 -35 -37 -28 -7 8 15 37 28 37 5 0 9 -4 9 -9z m-200 -38
c0 -10 -19 -38 -42 -61 -31 -34 -43 -41 -49 -30 -12 19 -11 28 4 28 6 1 26 19
42 40 33 43 45 49 45 23z m97 -38 c-4 -8 -11 -15 -17 -15 -7 0 -7 6 0 21 13
23 26 19 17 -6z m-67 -19 c0 -12 -31 -59 -46 -71 -34 -26 -34 -16 -2 30 27 38
48 56 48 41z"/>
<path d="M2164 59 c-4 -7 -3 -9 4 -5 5 3 13 0 15 -6 4 -9 6 -10 6 -1 1 17 -16
25 -25 12z"/>
<path d="M2021 44 c0 -11 3 -14 6 -6 3 7 2 16 -1 19 -3 4 -6 -2 -5 -13z"/>
<path d="M2051 44 c0 -11 3 -14 6 -6 3 7 2 16 -1 19 -3 4 -6 -2 -5 -13z"/>
<path d="M2103 45 c0 -8 4 -12 9 -9 5 3 6 10 3 15 -9 13 -12 11 -12 -6z"/>
</g>
</svg>
