<?xml version="1.0" standalone="no"?>
<!DOCTYPE svg PUBLIC "-//W3C//DTD SVG 20010904//EN"
 "http://www.w3.org/TR/2001/REC-SVG-20010904/DTD/svg10.dtd">
<svg version="1.0" xmlns="http://www.w3.org/2000/svg"
 width="794.000000pt" height="794.000000pt" viewBox="0 0 794.000000 794.000000"
 preserveAspectRatio="xMidYMid meet">

<g transform="translate(0.000000,794.000000) scale(0.100000,-0.100000)"
fill="#000000" stroke="none">
<path d="M3630 7385 c-624 -56 -1141 -267 -1453 -594 -174 -183 -254 -368
-264 -612 -8 -189 24 -311 116 -447 108 -160 277 -249 517 -273 249 -26 527
40 727 170 111 73 108 61 44 203 -101 222 -139 404 -118 566 36 287 184 466
427 517 396 84 676 -223 724 -792 25 -296 -37 -676 -160 -988 -112 -282 -246
-493 -535 -840 -321 -386 -460 -578 -557 -775 -109 -220 -158 -415 -158 -635
0 -374 132 -627 395 -756 123 -60 188 -74 345 -73 103 0 156 6 224 22 190 47
223 92 267 361 30 182 37 170 -101 175 -139 5 -192 22 -259 82 -62 56 -92 123
-98 223 -12 183 76 362 272 550 48 45 286 231 542 423 566 422 712 538 857
682 373 372 586 731 641 1081 21 129 16 371 -9 494 -146 710 -786 1171 -1722
1241 -182 13 -481 11 -664 -5z"/>
<path d="M3620 1783 c-214 -36 -413 -207 -481 -415 -32 -97 -35 -302 -5 -388
82 -243 265 -398 515 -440 326 -54 645 169 706 493 19 99 19 155 0 252 -44
232 -229 426 -461 485 -72 19 -203 25 -274 13z"/>
</g>
</svg>
